<?xml version="1.0" encoding="UTF-8"?>
<svg xmlns="http://www.w3.org/2000/svg" xmlns:xlink="http://www.w3.org/1999/xlink" width="94px" height="px" viewBox="0 0 93 27" version="1.1">
<g id="surface1">
<path style=" stroke:none;fill-rule:nonzero;fill:rgb(0%,0%,0%);fill-opacity:1;" d="M 92.484375 23.886719 C 92.484375 25.324219 91.300781 26.492188 89.835938 26.492188 L 3.167969 26.492188 C 1.703125 26.492188 0.515625 25.324219 0.515625 23.886719 L 0.515625 3.117188 C 0.515625 1.679688 1.703125 0.507812 3.167969 0.507812 L 89.835938 0.507812 C 91.300781 0.507812 92.484375 1.679688 92.484375 3.117188 Z M 92.484375 23.886719 "/>
<path style=" stroke:none;fill-rule:nonzero;fill:rgb(65.098039%,65.098039%,65.098039%);fill-opacity:1;" d="M 89.554688 0.539062 C 91.148438 0.539062 92.449219 1.8125 92.449219 3.375 L 92.449219 23.625 C 92.449219 25.1875 91.148438 26.460938 89.554688 26.460938 L 3.445312 26.460938 C 1.851562 26.460938 0.550781 25.1875 0.550781 23.625 L 0.550781 3.375 C 0.550781 1.8125 1.851562 0.539062 3.445312 0.539062 Z M 89.554688 0 L 3.445312 0 C 1.550781 0 0 1.519531 0 3.375 L 0 23.625 C 0 25.480469 1.550781 27 3.445312 27 L 89.554688 27 C 91.449219 27 93 25.480469 93 23.625 L 93 3.375 C 93 1.519531 91.449219 0 89.554688 0 Z M 89.554688 0 "/>
<path style=" stroke:none;fill-rule:nonzero;fill:rgb(100%,100%,100%);fill-opacity:1;" d="M 20.753906 13.355469 C 20.734375 11.179688 22.574219 10.121094 22.65625 10.070312 C 21.617188 8.582031 20.003906 8.378906 19.4375 8.363281 C 18.082031 8.226562 16.765625 9.160156 16.074219 9.160156 C 15.371094 9.160156 14.308594 8.378906 13.164062 8.402344 C 11.6875 8.421875 10.308594 9.257812 9.554688 10.558594 C 7.992188 13.207031 9.15625 17.097656 10.652344 19.238281 C 11.402344 20.285156 12.273438 21.457031 13.417969 21.414062 C 14.539062 21.371094 14.957031 20.714844 16.308594 20.714844 C 17.644531 20.714844 18.039062 21.414062 19.207031 21.390625 C 20.40625 21.371094 21.164062 20.335938 21.886719 19.277344 C 22.75 18.078125 23.097656 16.894531 23.109375 16.832031 C 23.082031 16.824219 20.777344 15.960938 20.753906 13.355469 Z M 20.753906 13.355469 "/>
<path style=" stroke:none;fill-rule:nonzero;fill:rgb(100%,100%,100%);fill-opacity:1;" d="M 18.550781 6.957031 C 19.152344 6.21875 19.566406 5.214844 19.449219 4.195312 C 18.578125 4.234375 17.488281 4.785156 16.859375 5.507812 C 16.304688 6.144531 15.808594 7.1875 15.9375 8.167969 C 16.917969 8.238281 17.921875 7.683594 18.550781 6.957031 Z M 18.550781 6.957031 "/>
<path style=" stroke:none;fill-rule:nonzero;fill:rgb(100%,100%,100%);fill-opacity:1;" d="M 36.957031 21.265625 L 35.390625 21.265625 L 34.535156 18.625 L 31.554688 18.625 L 30.738281 21.265625 L 29.214844 21.265625 L 32.167969 12.28125 L 33.988281 12.28125 Z M 34.277344 17.519531 L 33.5 15.175781 C 33.417969 14.933594 33.265625 14.371094 33.039062 13.480469 L 33.011719 13.480469 C 32.921875 13.863281 32.773438 14.429688 32.574219 15.175781 L 31.8125 17.519531 Z M 34.277344 17.519531 "/>
<path style=" stroke:none;fill-rule:nonzero;fill:rgb(100%,100%,100%);fill-opacity:1;" d="M 44.546875 17.945312 C 44.546875 19.046875 44.242188 19.917969 43.632812 20.558594 C 43.089844 21.128906 42.414062 21.410156 41.605469 21.410156 C 40.734375 21.410156 40.109375 21.105469 39.730469 20.492188 L 39.703125 20.492188 L 39.703125 23.90625 L 38.234375 23.90625 L 38.234375 16.921875 C 38.234375 16.226562 38.214844 15.515625 38.179688 14.789062 L 39.46875 14.789062 L 39.550781 15.816406 L 39.582031 15.816406 C 40.070312 15.042969 40.8125 14.65625 41.8125 14.65625 C 42.589844 14.65625 43.242188 14.957031 43.761719 15.5625 C 44.285156 16.164062 44.546875 16.960938 44.546875 17.945312 Z M 43.046875 18 C 43.046875 17.367188 42.902344 16.847656 42.613281 16.441406 C 42.296875 16.015625 41.871094 15.800781 41.335938 15.800781 C 40.972656 15.800781 40.644531 15.917969 40.347656 16.152344 C 40.054688 16.390625 39.859375 16.699219 39.769531 17.082031 C 39.726562 17.257812 39.703125 17.402344 39.703125 17.519531 L 39.703125 18.597656 C 39.703125 19.070312 39.851562 19.46875 40.144531 19.792969 C 40.441406 20.117188 40.824219 20.277344 41.292969 20.277344 C 41.847656 20.277344 42.277344 20.070312 42.585938 19.652344 C 42.894531 19.234375 43.046875 18.683594 43.046875 18 Z M 43.046875 18 "/>
<path style=" stroke:none;fill-rule:nonzero;fill:rgb(100%,100%,100%);fill-opacity:1;" d="M 52.148438 17.945312 C 52.148438 19.046875 51.84375 19.917969 51.234375 20.558594 C 50.691406 21.128906 50.015625 21.410156 49.210938 21.410156 C 48.339844 21.410156 47.714844 21.105469 47.332031 20.492188 L 47.304688 20.492188 L 47.304688 23.90625 L 45.835938 23.90625 L 45.835938 16.921875 C 45.835938 16.226562 45.820312 15.515625 45.78125 14.789062 L 47.074219 14.789062 L 47.15625 15.816406 L 47.183594 15.816406 C 47.671875 15.042969 48.417969 14.65625 49.414062 14.65625 C 50.195312 14.65625 50.84375 14.957031 51.367188 15.5625 C 51.886719 16.164062 52.148438 16.960938 52.148438 17.945312 Z M 50.652344 18 C 50.652344 17.367188 50.507812 16.847656 50.214844 16.441406 C 49.898438 16.015625 49.472656 15.800781 48.9375 15.800781 C 48.574219 15.800781 48.246094 15.917969 47.953125 16.152344 C 47.65625 16.390625 47.464844 16.699219 47.375 17.082031 C 47.328125 17.257812 47.304688 17.402344 47.304688 17.519531 L 47.304688 18.597656 C 47.304688 19.070312 47.453125 19.46875 47.746094 19.792969 C 48.042969 20.117188 48.425781 20.277344 48.898438 20.277344 C 49.449219 20.277344 49.882812 20.070312 50.1875 19.652344 C 50.496094 19.234375 50.652344 18.683594 50.652344 18 Z M 50.652344 18 "/>
<path style=" stroke:none;fill-rule:nonzero;fill:rgb(100%,100%,100%);fill-opacity:1;" d="M 60.648438 18.746094 C 60.648438 19.511719 60.378906 20.132812 59.835938 20.613281 C 59.238281 21.136719 58.40625 21.398438 57.335938 21.398438 C 56.351562 21.398438 55.558594 21.210938 54.960938 20.839844 L 55.300781 19.640625 C 55.945312 20.019531 56.652344 20.210938 57.425781 20.210938 C 57.976562 20.210938 58.410156 20.089844 58.71875 19.84375 C 59.027344 19.601562 59.179688 19.273438 59.179688 18.863281 C 59.179688 18.5 59.054688 18.191406 58.796875 17.945312 C 58.546875 17.695312 58.125 17.464844 57.535156 17.25 C 55.929688 16.664062 55.125 15.804688 55.125 14.671875 C 55.125 13.933594 55.40625 13.328125 55.972656 12.859375 C 56.53125 12.386719 57.28125 12.152344 58.214844 12.152344 C 59.050781 12.152344 59.742188 12.292969 60.296875 12.578125 L 59.929688 13.75 C 59.410156 13.476562 58.828125 13.335938 58.175781 13.335938 C 57.65625 13.335938 57.253906 13.460938 56.964844 13.710938 C 56.71875 13.933594 56.597656 14.203125 56.597656 14.523438 C 56.597656 14.878906 56.738281 15.171875 57.019531 15.402344 C 57.261719 15.617188 57.707031 15.847656 58.351562 16.097656 C 59.140625 16.40625 59.71875 16.773438 60.09375 17.1875 C 60.464844 17.605469 60.648438 18.125 60.648438 18.746094 Z M 60.648438 18.746094 "/>
<path style=" stroke:none;fill-rule:nonzero;fill:rgb(100%,100%,100%);fill-opacity:1;" d="M 65.503906 15.867188 L 63.886719 15.867188 L 63.886719 19.011719 C 63.886719 19.8125 64.171875 20.210938 64.742188 20.210938 C 65.003906 20.210938 65.222656 20.191406 65.394531 20.144531 L 65.4375 21.238281 C 65.148438 21.34375 64.765625 21.398438 64.292969 21.398438 C 63.714844 21.398438 63.261719 21.222656 62.933594 20.878906 C 62.609375 20.53125 62.445312 19.949219 62.445312 19.132812 L 62.445312 15.867188 L 61.480469 15.867188 L 61.480469 14.785156 L 62.445312 14.785156 L 62.445312 13.601562 L 63.886719 13.175781 L 63.886719 14.785156 L 65.503906 14.785156 Z M 65.503906 15.867188 "/>
<path style=" stroke:none;fill-rule:nonzero;fill:rgb(100%,100%,100%);fill-opacity:1;" d="M 72.808594 17.972656 C 72.808594 18.96875 72.519531 19.785156 71.9375 20.425781 C 71.332031 21.082031 70.523438 21.410156 69.515625 21.410156 C 68.546875 21.410156 67.773438 21.097656 67.199219 20.464844 C 66.621094 19.835938 66.335938 19.039062 66.335938 18.082031 C 66.335938 17.078125 66.632812 16.253906 67.226562 15.617188 C 67.816406 14.976562 68.617188 14.65625 69.625 14.65625 C 70.59375 14.65625 71.375 14.972656 71.964844 15.601562 C 72.527344 16.214844 72.808594 17.003906 72.808594 17.972656 Z M 71.285156 18.019531 C 71.285156 17.421875 71.15625 16.910156 70.890625 16.484375 C 70.582031 15.964844 70.144531 15.707031 69.574219 15.707031 C 68.984375 15.707031 68.535156 15.964844 68.226562 16.484375 C 67.960938 16.910156 67.832031 17.429688 67.832031 18.046875 C 67.832031 18.644531 67.960938 19.15625 68.226562 19.582031 C 68.542969 20.101562 68.988281 20.359375 69.558594 20.359375 C 70.121094 20.359375 70.5625 20.09375 70.878906 19.570312 C 71.148438 19.132812 71.285156 18.617188 71.285156 18.019531 Z M 71.285156 18.019531 "/>
<path style=" stroke:none;fill-rule:nonzero;fill:rgb(100%,100%,100%);fill-opacity:1;" d="M 77.582031 16.054688 C 77.4375 16.027344 77.28125 16.015625 77.121094 16.015625 C 76.605469 16.015625 76.203125 16.203125 75.921875 16.585938 C 75.679688 16.925781 75.554688 17.351562 75.554688 17.867188 L 75.554688 21.265625 L 74.089844 21.265625 L 74.101562 16.828125 C 74.101562 16.082031 74.082031 15.402344 74.046875 14.789062 L 75.324219 14.789062 L 75.378906 16.027344 L 75.421875 16.027344 C 75.574219 15.601562 75.820312 15.257812 76.15625 15 C 76.480469 14.769531 76.835938 14.65625 77.214844 14.65625 C 77.351562 14.65625 77.476562 14.664062 77.582031 14.679688 Z M 77.582031 16.054688 "/>
<path style=" stroke:none;fill-rule:nonzero;fill:rgb(100%,100%,100%);fill-opacity:1;" d="M 84.152344 17.71875 C 84.152344 17.976562 84.132812 18.195312 84.097656 18.371094 L 79.691406 18.371094 C 79.710938 19.011719 79.921875 19.503906 80.332031 19.839844 C 80.703125 20.140625 81.183594 20.292969 81.773438 20.292969 C 82.425781 20.292969 83.019531 20.191406 83.554688 19.984375 L 83.785156 20.984375 C 83.160156 21.253906 82.421875 21.386719 81.570312 21.386719 C 80.542969 21.386719 79.738281 21.089844 79.152344 20.5 C 78.570312 19.910156 78.277344 19.117188 78.277344 18.121094 C 78.277344 17.144531 78.550781 16.332031 79.09375 15.679688 C 79.664062 14.988281 80.433594 14.644531 81.40625 14.644531 C 82.359375 14.644531 83.078125 14.988281 83.570312 15.679688 C 83.957031 16.230469 84.152344 16.914062 84.152344 17.71875 Z M 82.75 17.347656 C 82.761719 16.921875 82.664062 16.550781 82.464844 16.242188 C 82.210938 15.839844 81.820312 15.640625 81.296875 15.640625 C 80.816406 15.640625 80.425781 15.835938 80.125 16.226562 C 79.882812 16.539062 79.738281 16.910156 79.691406 17.347656 Z M 82.75 17.347656 "/>
<path style=" stroke:none;fill-rule:nonzero;fill:rgb(100%,100%,100%);fill-opacity:1;" d="M 33.789062 6.757812 C 33.789062 7.550781 33.546875 8.148438 33.0625 8.550781 C 32.613281 8.921875 31.972656 9.105469 31.144531 9.105469 C 30.734375 9.105469 30.382812 9.089844 30.089844 9.054688 L 30.089844 4.710938 C 30.472656 4.652344 30.886719 4.621094 31.332031 4.621094 C 32.121094 4.621094 32.714844 4.789062 33.117188 5.125 C 33.566406 5.503906 33.789062 6.046875 33.789062 6.757812 Z M 33.027344 6.777344 C 33.027344 6.261719 32.890625 5.867188 32.613281 5.589844 C 32.332031 5.316406 31.925781 5.179688 31.390625 5.179688 C 31.164062 5.179688 30.96875 5.191406 30.808594 5.222656 L 30.808594 8.523438 C 30.898438 8.539062 31.0625 8.542969 31.296875 8.542969 C 31.851562 8.542969 32.277344 8.394531 32.578125 8.09375 C 32.878906 7.789062 33.027344 7.351562 33.027344 6.777344 Z M 33.027344 6.777344 "/>
<path style=" stroke:none;fill-rule:nonzero;fill:rgb(100%,100%,100%);fill-opacity:1;" d="M 37.828125 7.449219 C 37.828125 7.9375 37.683594 8.339844 37.398438 8.65625 C 37.097656 8.976562 36.703125 9.140625 36.207031 9.140625 C 35.730469 9.140625 35.351562 8.984375 35.070312 8.675781 C 34.785156 8.363281 34.644531 7.972656 34.644531 7.503906 C 34.644531 7.011719 34.789062 6.605469 35.082031 6.292969 C 35.375 5.976562 35.769531 5.820312 36.261719 5.820312 C 36.738281 5.820312 37.121094 5.976562 37.414062 6.285156 C 37.6875 6.585938 37.828125 6.976562 37.828125 7.449219 Z M 37.078125 7.472656 C 37.078125 7.179688 37.011719 6.925781 36.882812 6.71875 C 36.730469 6.464844 36.515625 6.335938 36.234375 6.335938 C 35.945312 6.335938 35.726562 6.464844 35.574219 6.71875 C 35.445312 6.925781 35.378906 7.183594 35.378906 7.484375 C 35.378906 7.78125 35.445312 8.03125 35.574219 8.242188 C 35.730469 8.496094 35.949219 8.621094 36.230469 8.621094 C 36.503906 8.621094 36.722656 8.492188 36.875 8.234375 C 37.011719 8.019531 37.078125 7.765625 37.078125 7.472656 Z M 37.078125 7.472656 "/>
<path style=" stroke:none;fill-rule:nonzero;fill:rgb(100%,100%,100%);fill-opacity:1;" d="M 43.238281 5.886719 L 42.222656 9.066406 L 41.5625 9.066406 L 41.140625 7.6875 C 41.03125 7.339844 40.945312 6.996094 40.878906 6.65625 L 40.867188 6.65625 C 40.804688 7.007812 40.714844 7.347656 40.605469 7.6875 L 40.15625 9.066406 L 39.488281 9.066406 L 38.53125 5.886719 L 39.273438 5.886719 L 39.640625 7.398438 C 39.730469 7.753906 39.804688 8.097656 39.863281 8.417969 L 39.875 8.417969 C 39.929688 8.152344 40.019531 7.816406 40.144531 7.40625 L 40.605469 5.886719 L 41.191406 5.886719 L 41.632812 7.371094 C 41.742188 7.734375 41.828125 8.082031 41.894531 8.421875 L 41.914062 8.421875 C 41.964844 8.09375 42.039062 7.742188 42.136719 7.371094 L 42.527344 5.886719 Z M 43.238281 5.886719 "/>
<path style=" stroke:none;fill-rule:nonzero;fill:rgb(100%,100%,100%);fill-opacity:1;" d="M 46.980469 9.066406 L 46.257812 9.066406 L 46.257812 7.246094 C 46.257812 6.683594 46.042969 6.402344 45.605469 6.402344 C 45.390625 6.402344 45.21875 6.480469 45.082031 6.632812 C 44.949219 6.789062 44.882812 6.972656 44.882812 7.179688 L 44.882812 9.066406 L 44.160156 9.066406 L 44.160156 6.792969 C 44.160156 6.515625 44.152344 6.210938 44.132812 5.882812 L 44.769531 5.882812 L 44.800781 6.382812 L 44.824219 6.382812 C 44.90625 6.226562 45.03125 6.097656 45.195312 5.996094 C 45.390625 5.878906 45.613281 5.820312 45.851562 5.820312 C 46.152344 5.820312 46.40625 5.914062 46.605469 6.105469 C 46.855469 6.34375 46.980469 6.695312 46.980469 7.160156 Z M 46.980469 9.066406 "/>
<path style=" stroke:none;fill-rule:nonzero;fill:rgb(100%,100%,100%);fill-opacity:1;" d="M 48.972656 9.066406 L 48.25 9.066406 L 48.25 4.425781 L 48.972656 4.425781 Z M 48.972656 9.066406 "/>
<path style=" stroke:none;fill-rule:nonzero;fill:rgb(100%,100%,100%);fill-opacity:1;" d="M 53.222656 7.449219 C 53.222656 7.9375 53.078125 8.339844 52.792969 8.65625 C 52.496094 8.976562 52.097656 9.140625 51.605469 9.140625 C 51.128906 9.140625 50.746094 8.984375 50.464844 8.675781 C 50.183594 8.363281 50.042969 7.972656 50.042969 7.503906 C 50.042969 7.011719 50.1875 6.605469 50.480469 6.292969 C 50.769531 5.976562 51.164062 5.820312 51.65625 5.820312 C 52.136719 5.820312 52.519531 5.976562 52.808594 6.285156 C 53.082031 6.585938 53.222656 6.976562 53.222656 7.449219 Z M 52.472656 7.472656 C 52.472656 7.179688 52.40625 6.925781 52.277344 6.71875 C 52.128906 6.464844 51.910156 6.335938 51.632812 6.335938 C 51.339844 6.335938 51.121094 6.464844 50.96875 6.71875 C 50.839844 6.925781 50.777344 7.183594 50.777344 7.484375 C 50.777344 7.78125 50.839844 8.03125 50.96875 8.242188 C 51.125 8.496094 51.34375 8.621094 51.625 8.621094 C 51.902344 8.621094 52.117188 8.492188 52.273438 8.234375 C 52.40625 8.019531 52.472656 7.765625 52.472656 7.472656 Z M 52.472656 7.472656 "/>
<path style=" stroke:none;fill-rule:nonzero;fill:rgb(100%,100%,100%);fill-opacity:1;" d="M 56.714844 9.066406 L 56.066406 9.066406 L 56.015625 8.699219 L 55.996094 8.699219 C 55.773438 8.992188 55.457031 9.140625 55.046875 9.140625 C 54.738281 9.140625 54.492188 9.042969 54.304688 8.851562 C 54.136719 8.675781 54.050781 8.460938 54.050781 8.203125 C 54.050781 7.816406 54.214844 7.519531 54.546875 7.3125 C 54.878906 7.109375 55.347656 7.007812 55.949219 7.011719 L 55.949219 6.953125 C 55.949219 6.535156 55.722656 6.324219 55.273438 6.324219 C 54.953125 6.324219 54.671875 6.402344 54.425781 6.558594 L 54.28125 6.09375 C 54.582031 5.914062 54.957031 5.820312 55.394531 5.820312 C 56.242188 5.820312 56.667969 6.257812 56.667969 7.136719 L 56.667969 8.308594 C 56.667969 8.625 56.683594 8.878906 56.714844 9.066406 Z M 55.96875 7.972656 L 55.96875 7.484375 C 55.171875 7.46875 54.773438 7.683594 54.773438 8.125 C 54.773438 8.289062 54.816406 8.414062 54.910156 8.496094 C 55.003906 8.582031 55.121094 8.621094 55.261719 8.621094 C 55.421875 8.621094 55.570312 8.574219 55.703125 8.476562 C 55.839844 8.375 55.925781 8.25 55.953125 8.097656 C 55.960938 8.0625 55.96875 8.023438 55.96875 7.972656 Z M 55.96875 7.972656 "/>
<path style=" stroke:none;fill-rule:nonzero;fill:rgb(100%,100%,100%);fill-opacity:1;" d="M 60.820312 9.066406 L 60.175781 9.066406 L 60.144531 8.554688 L 60.125 8.554688 C 59.917969 8.945312 59.570312 9.140625 59.082031 9.140625 C 58.691406 9.140625 58.363281 8.988281 58.105469 8.6875 C 57.847656 8.386719 57.71875 7.996094 57.71875 7.515625 C 57.71875 7 57.859375 6.582031 58.140625 6.265625 C 58.410156 5.96875 58.746094 5.820312 59.140625 5.820312 C 59.578125 5.820312 59.882812 5.964844 60.058594 6.25 L 60.070312 6.25 L 60.070312 4.425781 L 60.792969 4.425781 L 60.792969 8.210938 C 60.792969 8.519531 60.800781 8.804688 60.820312 9.066406 Z M 60.070312 7.726562 L 60.070312 7.195312 C 60.070312 7.101562 60.0625 7.027344 60.050781 6.972656 C 60.011719 6.800781 59.921875 6.660156 59.789062 6.542969 C 59.65625 6.429688 59.492188 6.371094 59.304688 6.371094 C 59.035156 6.371094 58.824219 6.472656 58.671875 6.683594 C 58.519531 6.894531 58.441406 7.164062 58.441406 7.488281 C 58.441406 7.804688 58.511719 8.058594 58.660156 8.257812 C 58.816406 8.464844 59.027344 8.570312 59.292969 8.570312 C 59.53125 8.570312 59.71875 8.484375 59.863281 8.308594 C 60.003906 8.148438 60.070312 7.953125 60.070312 7.726562 Z M 60.070312 7.726562 "/>
<path style=" stroke:none;fill-rule:nonzero;fill:rgb(100%,100%,100%);fill-opacity:1;" d="M 66.992188 7.449219 C 66.992188 7.9375 66.851562 8.339844 66.566406 8.65625 C 66.265625 8.976562 65.871094 9.140625 65.375 9.140625 C 64.898438 9.140625 64.519531 8.984375 64.234375 8.675781 C 63.953125 8.363281 63.8125 7.972656 63.8125 7.503906 C 63.8125 7.011719 63.957031 6.605469 64.25 6.292969 C 64.542969 5.976562 64.933594 5.820312 65.429688 5.820312 C 65.90625 5.820312 66.289062 5.976562 66.578125 6.285156 C 66.855469 6.585938 66.992188 6.976562 66.992188 7.449219 Z M 66.246094 7.472656 C 66.246094 7.179688 66.179688 6.925781 66.050781 6.71875 C 65.898438 6.464844 65.683594 6.335938 65.402344 6.335938 C 65.113281 6.335938 64.894531 6.464844 64.742188 6.71875 C 64.613281 6.925781 64.546875 7.183594 64.546875 7.484375 C 64.546875 7.78125 64.613281 8.03125 64.742188 8.242188 C 64.898438 8.496094 65.113281 8.621094 65.394531 8.621094 C 65.671875 8.621094 65.890625 8.492188 66.042969 8.234375 C 66.175781 8.019531 66.246094 7.765625 66.246094 7.472656 Z M 66.246094 7.472656 "/>
<path style=" stroke:none;fill-rule:nonzero;fill:rgb(100%,100%,100%);fill-opacity:1;" d="M 70.875 9.066406 L 70.152344 9.066406 L 70.152344 7.246094 C 70.152344 6.683594 69.9375 6.402344 69.5 6.402344 C 69.285156 6.402344 69.113281 6.480469 68.976562 6.632812 C 68.84375 6.789062 68.777344 6.972656 68.777344 7.179688 L 68.777344 9.066406 L 68.054688 9.066406 L 68.054688 6.792969 C 68.054688 6.515625 68.046875 6.210938 68.027344 5.882812 L 68.664062 5.882812 L 68.695312 6.382812 L 68.714844 6.382812 C 68.800781 6.226562 68.925781 6.097656 69.089844 5.996094 C 69.285156 5.878906 69.503906 5.820312 69.746094 5.820312 C 70.046875 5.820312 70.300781 5.914062 70.5 6.105469 C 70.75 6.34375 70.875 6.695312 70.875 7.160156 Z M 70.875 9.066406 "/>
<path style=" stroke:none;fill-rule:nonzero;fill:rgb(100%,100%,100%);fill-opacity:1;" d="M 75.734375 6.414062 L 74.9375 6.414062 L 74.9375 7.960938 C 74.9375 8.355469 75.078125 8.550781 75.359375 8.550781 C 75.488281 8.550781 75.597656 8.539062 75.679688 8.515625 L 75.699219 9.054688 C 75.558594 9.105469 75.371094 9.132812 75.140625 9.132812 C 74.855469 9.132812 74.632812 9.046875 74.472656 8.878906 C 74.3125 8.707031 74.230469 8.421875 74.230469 8.019531 L 74.230469 6.414062 L 73.753906 6.414062 L 73.753906 5.886719 L 74.230469 5.886719 L 74.230469 5.300781 L 74.9375 5.09375 L 74.9375 5.882812 L 75.734375 5.882812 Z M 75.734375 6.414062 "/>
<path style=" stroke:none;fill-rule:nonzero;fill:rgb(100%,100%,100%);fill-opacity:1;" d="M 79.554688 9.066406 L 78.832031 9.066406 L 78.832031 7.257812 C 78.832031 6.6875 78.617188 6.402344 78.179688 6.402344 C 77.84375 6.402344 77.617188 6.566406 77.488281 6.898438 C 77.46875 6.96875 77.457031 7.054688 77.457031 7.152344 L 77.457031 9.066406 L 76.734375 9.066406 L 76.734375 4.425781 L 77.457031 4.425781 L 77.457031 6.34375 L 77.46875 6.34375 C 77.699219 5.992188 78.023438 5.820312 78.445312 5.820312 C 78.746094 5.820312 78.992188 5.914062 79.1875 6.109375 C 79.433594 6.347656 79.554688 6.703125 79.554688 7.175781 Z M 79.554688 9.066406 "/>
<path style=" stroke:none;fill-rule:nonzero;fill:rgb(100%,100%,100%);fill-opacity:1;" d="M 83.496094 7.324219 C 83.496094 7.453125 83.488281 7.558594 83.472656 7.644531 L 81.304688 7.644531 C 81.316406 7.960938 81.417969 8.199219 81.621094 8.367188 C 81.804688 8.515625 82.039062 8.589844 82.328125 8.589844 C 82.648438 8.589844 82.941406 8.539062 83.203125 8.4375 L 83.316406 8.929688 C 83.007812 9.0625 82.648438 9.125 82.226562 9.125 C 81.722656 9.125 81.328125 8.980469 81.042969 8.691406 C 80.753906 8.402344 80.609375 8.011719 80.609375 7.523438 C 80.609375 7.042969 80.746094 6.644531 81.011719 6.324219 C 81.292969 5.984375 81.671875 5.8125 82.148438 5.8125 C 82.613281 5.8125 82.96875 5.984375 83.207031 6.324219 C 83.402344 6.59375 83.496094 6.929688 83.496094 7.324219 Z M 82.808594 7.144531 C 82.816406 6.933594 82.765625 6.753906 82.667969 6.597656 C 82.542969 6.402344 82.351562 6.304688 82.09375 6.304688 C 81.859375 6.304688 81.667969 6.398438 81.519531 6.59375 C 81.398438 6.746094 81.328125 6.929688 81.304688 7.144531 Z M 82.808594 7.144531 "/>
</g>
</svg>
