<?xml version="1.0" encoding="UTF-8"?>
<svg xmlns="http://www.w3.org/2000/svg" xmlns:xlink="http://www.w3.org/1999/xlink" width="94px" height="px" viewBox="0 0 93 27" version="1.1">
<defs>
<linearGradient id="linear0" gradientUnits="userSpaceOnUse" x1="29.0263" y1="40.6774" x2="7.21544" y2="18.338" gradientTransform="matrix(0.516667,0,0,0.519231,0,0)">
<stop offset="0" style="stop-color:rgb(0%,62.745098%,100%);stop-opacity:1;"/>
<stop offset="0.0066" style="stop-color:rgb(0%,63.137255%,100%);stop-opacity:1;"/>
<stop offset="0.2601" style="stop-color:rgb(0%,74.509804%,100%);stop-opacity:1;"/>
<stop offset="0.5122" style="stop-color:rgb(0%,82.352941%,100%);stop-opacity:1;"/>
<stop offset="0.7604" style="stop-color:rgb(0%,87.45098%,100%);stop-opacity:1;"/>
<stop offset="1" style="stop-color:rgb(0%,89.019608%,100%);stop-opacity:1;"/>
</linearGradient>
<linearGradient id="linear1" gradientUnits="userSpaceOnUse" x1="45.0505" y1="25.9982" x2="12.8323" y2="25.9982" gradientTransform="matrix(0.516667,0,0,0.519231,0,0)">
<stop offset="0" style="stop-color:rgb(100%,87.843137%,0%);stop-opacity:1;"/>
<stop offset="0.4087" style="stop-color:rgb(100%,74.117647%,0%);stop-opacity:1;"/>
<stop offset="0.7754" style="stop-color:rgb(100%,64.705882%,0%);stop-opacity:1;"/>
<stop offset="1" style="stop-color:rgb(100%,61.176471%,0%);stop-opacity:1;"/>
</linearGradient>
<linearGradient id="linear2" gradientUnits="userSpaceOnUse" x1="33.0572" y1="23.0151" x2="3.47986" y2="-7.27893" gradientTransform="matrix(0.516667,0,0,0.519231,0,0)">
<stop offset="0" style="stop-color:rgb(100%,22.745098%,26.666667%);stop-opacity:1;"/>
<stop offset="1" style="stop-color:rgb(76.470588%,6.666667%,38.431373%);stop-opacity:1;"/>
</linearGradient>
<linearGradient id="linear3" gradientUnits="userSpaceOnUse" x1="9.71636" y1="51.7709" x2="22.924" y2="38.2434" gradientTransform="matrix(0.516667,0,0,0.519231,0,0)">
<stop offset="0" style="stop-color:rgb(19.607843%,62.745098%,44.313725%);stop-opacity:1;"/>
<stop offset="0.0685" style="stop-color:rgb(17.647059%,65.490196%,44.313725%);stop-opacity:1;"/>
<stop offset="0.4762" style="stop-color:rgb(8.235294%,81.176471%,45.490196%);stop-opacity:1;"/>
<stop offset="0.8009" style="stop-color:rgb(2.352941%,90.588235%,45.882353%);stop-opacity:1;"/>
<stop offset="1" style="stop-color:rgb(0%,94.117647%,46.27451%);stop-opacity:1;"/>
</linearGradient>
</defs>
<g id="surface1">
<path style=" stroke:none;fill-rule:nonzero;fill:rgb(0%,0%,0%);fill-opacity:1;" d="M 89.433594 27 L 3.441406 27 C 1.546875 27 0 25.480469 0 23.625 L 0 3.375 C 0 1.519531 1.546875 0 3.441406 0 L 89.433594 0 C 91.324219 0 92.871094 1.519531 92.871094 3.375 L 92.871094 23.625 C 92.871094 25.480469 91.324219 27 89.433594 27 Z M 89.433594 27 "/>
<path style=" stroke:none;fill-rule:nonzero;fill:rgb(65.098039%,65.098039%,65.098039%);fill-opacity:1;" d="M 89.433594 0.539062 C 91.023438 0.539062 92.320312 1.8125 92.320312 3.375 L 92.320312 23.625 C 92.320312 25.1875 91.023438 26.460938 89.433594 26.460938 L 3.441406 26.460938 C 1.847656 26.460938 0.550781 25.1875 0.550781 23.625 L 0.550781 3.375 C 0.550781 1.8125 1.847656 0.539062 3.441406 0.539062 Z M 89.433594 0 L 3.441406 0 C 1.546875 0 0 1.519531 0 3.375 L 0 23.625 C 0 25.480469 1.546875 27 3.441406 27 L 89.433594 27 C 91.324219 27 92.871094 25.480469 92.871094 23.625 L 92.871094 3.375 C 92.871094 1.519531 91.324219 0 89.433594 0 Z M 89.433594 0 "/>
<path style="fill-rule:nonzero;fill:rgb(100%,100%,100%);fill-opacity:1;stroke-width:0.16;stroke-linecap:butt;stroke-linejoin:miter;stroke:rgb(100%,100%,100%);stroke-opacity:1;stroke-miterlimit:10;" d="M 63.137601 13.315972 C 63.137601 14.399306 62.80494 15.271991 62.147177 15.918981 C 61.391129 16.686343 60.408266 17.077546 59.206149 17.077546 C 58.056956 17.077546 57.074093 16.678819 56.272681 15.903935 C 55.46371 15.121528 55.063004 14.158565 55.063004 13 C 55.063004 11.841435 55.46371 10.878472 56.272681 10.096065 C 57.074093 9.321181 58.056956 8.922454 59.206149 8.922454 C 59.780746 8.922454 60.325101 9.042824 60.846774 9.253472 C 61.368448 9.471644 61.791835 9.765046 62.094254 10.126157 L 61.39869 10.810764 C 60.869456 10.193866 60.136089 9.89294 59.206149 9.89294 C 58.366935 9.89294 57.641129 10.178819 57.021169 10.750579 C 56.416331 11.329861 56.106351 12.082176 56.106351 13 C 56.106351 13.917824 56.416331 14.677662 57.021169 15.256944 C 57.641129 15.821181 58.366935 16.114583 59.206149 16.114583 C 60.098286 16.114583 60.846774 15.821181 61.436492 15.249421 C 61.829637 14.865741 62.048891 14.33912 62.109375 13.66956 L 59.206149 13.66956 L 59.206149 12.729167 L 63.077117 12.729167 C 63.12248 12.932292 63.137601 13.127894 63.137601 13.315972 Z M 63.137601 13.315972 " transform="matrix(0.516667,0,0,0.519231,0,0)"/>
<path style="fill-rule:nonzero;fill:rgb(100%,100%,100%);fill-opacity:1;stroke-width:0.16;stroke-linecap:butt;stroke-linejoin:miter;stroke:rgb(100%,100%,100%);stroke-opacity:1;stroke-miterlimit:10;" d="M 69.276714 10.058449 L 65.640121 10.058449 L 65.640121 12.533565 L 68.91381 12.533565 L 68.91381 13.466435 L 65.640121 13.466435 L 65.640121 15.941551 L 69.276714 15.941551 L 69.276714 16.896991 L 64.611895 16.896991 L 64.611895 9.103009 L 69.276714 9.103009 Z M 69.276714 10.058449 " transform="matrix(0.516667,0,0,0.519231,0,0)"/>
<path style="fill-rule:nonzero;fill:rgb(100%,100%,100%);fill-opacity:1;stroke-width:0.16;stroke-linecap:butt;stroke-linejoin:miter;stroke:rgb(100%,100%,100%);stroke-opacity:1;stroke-miterlimit:10;" d="M 73.60131 16.896991 L 72.573085 16.896991 L 72.573085 10.058449 L 70.342742 10.058449 L 70.342742 9.103009 L 75.831653 9.103009 L 75.831653 10.058449 L 73.60131 10.058449 Z M 73.60131 16.896991 " transform="matrix(0.516667,0,0,0.519231,0,0)"/>
<path style="fill-rule:nonzero;fill:rgb(100%,100%,100%);fill-opacity:1;stroke-width:0.16;stroke-linecap:butt;stroke-linejoin:miter;stroke:rgb(100%,100%,100%);stroke-opacity:1;stroke-miterlimit:10;" d="M 79.808468 16.896991 L 79.808468 9.103009 L 80.829133 9.103009 L 80.829133 16.896991 Z M 79.808468 16.896991 " transform="matrix(0.516667,0,0,0.519231,0,0)"/>
<path style="fill-rule:nonzero;fill:rgb(100%,100%,100%);fill-opacity:1;stroke-width:0.16;stroke-linecap:butt;stroke-linejoin:miter;stroke:rgb(100%,100%,100%);stroke-opacity:1;stroke-miterlimit:10;" d="M 85.380544 16.896991 L 84.36744 16.896991 L 84.36744 10.058449 L 82.129536 10.058449 L 82.129536 9.103009 L 87.618448 9.103009 L 87.618448 10.058449 L 85.380544 10.058449 Z M 85.380544 16.896991 " transform="matrix(0.516667,0,0,0.519231,0,0)"/>
<path style="fill-rule:nonzero;fill:rgb(100%,100%,100%);fill-opacity:1;stroke-width:0.16;stroke-linecap:butt;stroke-linejoin:miter;stroke:rgb(100%,100%,100%);stroke-opacity:1;stroke-miterlimit:10;" d="M 98.006552 15.896412 C 97.220262 16.678819 96.24496 17.077546 95.080645 17.077546 C 93.916331 17.077546 92.941028 16.678819 92.154738 15.896412 C 91.368448 15.106481 90.975302 14.143519 90.975302 13 C 90.975302 11.856481 91.368448 10.893519 92.154738 10.103588 C 92.941028 9.321181 93.916331 8.922454 95.080645 8.922454 C 96.237399 8.922454 97.212702 9.321181 98.006552 10.111111 C 98.792843 10.908565 99.185988 11.864005 99.185988 13 C 99.185988 14.143519 98.792843 15.106481 98.006552 15.896412 Z M 92.910786 15.241898 C 93.508065 15.821181 94.22631 16.114583 95.080645 16.114583 C 95.93498 16.114583 96.660786 15.821181 97.250504 15.241898 C 97.840222 14.655093 98.142641 13.910301 98.142641 13 C 98.142641 12.089699 97.840222 11.344907 97.250504 10.758102 C 96.660786 10.178819 95.93498 9.885417 95.080645 9.885417 C 94.22631 9.885417 93.508065 10.178819 92.910786 10.758102 C 92.321069 11.344907 92.018649 12.089699 92.018649 13 C 92.018649 13.910301 92.321069 14.655093 92.910786 15.241898 Z M 92.910786 15.241898 " transform="matrix(0.516667,0,0,0.519231,0,0)"/>
<path style="fill-rule:nonzero;fill:rgb(100%,100%,100%);fill-opacity:1;stroke-width:0.16;stroke-linecap:butt;stroke-linejoin:miter;stroke:rgb(100%,100%,100%);stroke-opacity:1;stroke-miterlimit:10;" d="M 100.63004 16.896991 L 100.63004 9.103009 L 101.87752 9.103009 L 105.756048 15.166667 L 105.801411 15.166667 L 105.756048 13.66956 L 105.756048 9.103009 L 106.784274 9.103009 L 106.784274 16.896991 L 105.710685 16.896991 L 101.650706 10.539931 L 101.605343 10.539931 L 101.650706 12.04456 L 101.650706 16.896991 Z M 100.63004 16.896991 " transform="matrix(0.516667,0,0,0.519231,0,0)"/>
<path style=" stroke:none;fill-rule:nonzero;fill:rgb(100%,100%,100%);fill-opacity:1;" d="M 46.871094 14.683594 C 45.257812 14.683594 43.9375 15.890625 43.9375 17.554688 C 43.9375 19.207031 45.257812 20.425781 46.871094 20.425781 C 48.492188 20.425781 49.8125 19.207031 49.8125 17.554688 C 49.8125 15.890625 48.492188 14.683594 46.871094 14.683594 Z M 46.871094 19.292969 C 45.988281 19.292969 45.222656 18.574219 45.222656 17.554688 C 45.222656 16.519531 45.988281 15.8125 46.871094 15.8125 C 47.757812 15.8125 48.527344 16.519531 48.527344 17.554688 C 48.527344 18.574219 47.757812 19.292969 46.871094 19.292969 Z M 40.46875 14.683594 C 38.847656 14.683594 37.53125 15.890625 37.53125 17.554688 C 37.53125 19.207031 38.847656 20.425781 40.46875 20.425781 C 42.085938 20.425781 43.402344 19.207031 43.402344 17.554688 C 43.402344 15.890625 42.085938 14.683594 40.46875 14.683594 Z M 40.46875 19.292969 C 39.578125 19.292969 38.816406 18.574219 38.816406 17.554688 C 38.816406 16.519531 39.578125 15.8125 40.46875 15.8125 C 41.355469 15.8125 42.117188 16.519531 42.117188 17.554688 C 42.117188 18.574219 41.355469 19.292969 40.46875 19.292969 Z M 32.84375 15.5625 L 32.84375 16.78125 L 35.8125 16.78125 C 35.726562 17.464844 35.496094 17.964844 35.140625 18.316406 C 34.707031 18.738281 34.03125 19.207031 32.84375 19.207031 C 31.015625 19.207031 29.585938 17.757812 29.585938 15.964844 C 29.585938 14.171875 31.015625 12.726562 32.84375 12.726562 C 33.832031 12.726562 34.550781 13.105469 35.082031 13.59375 L 35.957031 12.734375 C 35.214844 12.039062 34.230469 11.507812 32.84375 11.507812 C 30.339844 11.507812 28.234375 13.507812 28.234375 15.964844 C 28.234375 18.425781 30.339844 20.425781 32.84375 20.425781 C 34.199219 20.425781 35.214844 19.988281 36.015625 19.171875 C 36.835938 18.367188 37.089844 17.238281 37.089844 16.324219 C 37.089844 16.042969 37.066406 15.78125 37.023438 15.5625 Z M 64.015625 16.507812 C 63.773438 15.867188 63.027344 14.683594 61.507812 14.683594 C 60.003906 14.683594 58.75 15.847656 58.75 17.554688 C 58.75 19.164062 59.988281 20.425781 61.652344 20.425781 C 62.996094 20.425781 63.773438 19.621094 64.089844 19.152344 L 63.09375 18.5 C 62.761719 18.976562 62.308594 19.292969 61.652344 19.292969 C 61 19.292969 60.535156 19 60.234375 18.425781 L 64.148438 16.835938 Z M 60.023438 17.464844 C 59.988281 16.359375 60.898438 15.789062 61.550781 15.789062 C 62.0625 15.789062 62.496094 16.042969 62.640625 16.398438 Z M 56.84375 20.25 L 58.128906 20.25 L 58.128906 11.8125 L 56.84375 11.8125 Z M 54.734375 15.324219 L 54.691406 15.324219 C 54.402344 14.988281 53.851562 14.683594 53.15625 14.683594 C 51.6875 14.683594 50.347656 15.945312 50.347656 17.5625 C 50.347656 19.171875 51.6875 20.425781 53.15625 20.425781 C 53.851562 20.425781 54.402344 20.117188 54.691406 19.773438 L 54.734375 19.773438 L 54.734375 20.183594 C 54.734375 21.28125 54.136719 21.871094 53.175781 21.871094 C 52.386719 21.871094 51.902344 21.316406 51.699219 20.847656 L 50.582031 21.304688 C 50.902344 22.066406 51.757812 23.003906 53.175781 23.003906 C 54.683594 23.003906 55.957031 22.132812 55.957031 20.011719 L 55.957031 14.859375 L 54.734375 14.859375 Z M 53.265625 19.292969 C 52.378906 19.292969 51.636719 18.566406 51.636719 17.5625 C 51.636719 16.550781 52.378906 15.8125 53.265625 15.8125 C 54.136719 15.8125 54.828125 16.550781 54.828125 17.5625 C 54.828125 18.566406 54.136719 19.292969 53.265625 19.292969 Z M 70.035156 11.8125 L 66.960938 11.8125 L 66.960938 20.25 L 68.242188 20.25 L 68.242188 17.054688 L 70.035156 17.054688 C 71.460938 17.054688 72.859375 16.042969 72.859375 14.433594 C 72.859375 12.824219 71.457031 11.8125 70.035156 11.8125 Z M 70.070312 15.878906 L 68.242188 15.878906 L 68.242188 12.984375 L 70.070312 12.984375 C 71.027344 12.984375 71.574219 13.765625 71.574219 14.433594 C 71.574219 15.085938 71.027344 15.878906 70.070312 15.878906 Z M 78 14.667969 C 77.074219 14.667969 76.109375 15.070312 75.714844 15.957031 L 76.851562 16.425781 C 77.097656 15.957031 77.546875 15.808594 78.023438 15.808594 C 78.691406 15.808594 79.363281 16.199219 79.375 16.890625 L 79.375 16.980469 C 79.144531 16.847656 78.644531 16.652344 78.035156 16.652344 C 76.808594 16.652344 75.558594 17.316406 75.558594 18.550781 C 75.558594 19.683594 76.5625 20.410156 77.691406 20.410156 C 78.554688 20.410156 79.03125 20.027344 79.332031 19.585938 L 79.375 19.585938 L 79.375 20.238281 L 80.613281 20.238281 L 80.613281 17 C 80.613281 15.503906 79.476562 14.667969 78 14.667969 Z M 77.847656 19.289062 C 77.425781 19.289062 76.84375 19.085938 76.84375 18.574219 C 76.84375 17.921875 77.570312 17.671875 78.203125 17.671875 C 78.765625 17.671875 79.03125 17.792969 79.375 17.957031 C 79.273438 18.738281 78.589844 19.289062 77.847656 19.289062 Z M 85.128906 14.851562 L 83.65625 18.507812 L 83.609375 18.507812 L 82.085938 14.851562 L 80.703125 14.851562 L 82.992188 19.964844 L 81.6875 22.808594 L 83.027344 22.808594 L 86.558594 14.851562 Z M 73.5625 20.25 L 74.851562 20.25 L 74.851562 11.8125 L 73.5625 11.8125 Z M 73.5625 20.25 "/>
<path style=" stroke:none;fill-rule:nonzero;fill:url(#linear0);" d="M 7.179688 5.089844 C 6.976562 5.296875 6.859375 5.621094 6.859375 6.039062 L 6.859375 20.964844 C 6.859375 21.382812 6.976562 21.707031 7.179688 21.914062 L 7.230469 21.960938 L 15.753906 13.597656 L 15.753906 13.402344 L 7.230469 5.039062 Z M 7.179688 5.089844 "/>
<path style=" stroke:none;fill-rule:nonzero;fill:url(#linear1);" d="M 18.59375 16.386719 L 15.753906 13.597656 L 15.753906 13.402344 L 18.597656 10.613281 L 18.660156 10.648438 L 22.023438 12.527344 C 22.984375 13.0625 22.984375 13.9375 22.023438 14.476562 L 18.660156 16.351562 Z M 18.59375 16.386719 "/>
<path style=" stroke:none;fill-rule:nonzero;fill:url(#linear2);" d="M 18.660156 16.351562 L 15.753906 13.5 L 7.179688 21.914062 C 7.496094 22.242188 8.019531 22.285156 8.609375 21.953125 Z M 18.660156 16.351562 "/>
<path style=" stroke:none;fill-rule:nonzero;fill:url(#linear3);" d="M 18.660156 10.648438 L 8.609375 5.046875 C 8.019531 4.71875 7.496094 4.757812 7.179688 5.089844 L 15.753906 13.5 Z M 18.660156 10.648438 "/>
</g>
</svg>
